<svg width="15" height="38" viewBox="0 0 15 38" fill="none" xmlns="http://www.w3.org/2000/svg">
<path d="M1.875 3.8C1.875 1.691 3.54375 0 5.625 0C7.70625 0 9.375 1.691 9.375 3.8C9.375 5.909 7.70625 7.6 5.625 7.6C3.54375 7.6 1.875 5.909 1.875 3.8ZM15 20.9C14.9915 19.6829 14.632 18.4948 13.9657 17.4821C13.2994 16.4693 12.3555 15.6761 11.25 15.2C11.25 11.951 8.5875 9.348 5.325 9.5C2.2875 9.671 0 12.426 0 15.504V26.6C0 27.645 0.84375 28.5 1.875 28.5H3.75V35.15C3.75 36.727 5.00625 38 6.5625 38C8.11875 38 9.375 36.727 9.375 35.15V28.5H13.125C14.1563 28.5 15 27.645 15 26.6V20.9Z" fill="black"/>
</svg>
