<svg width="22" height="22" viewBox="0 0 22 22" fill="none" xmlns="http://www.w3.org/2000/svg">
<g clip-path="url(#clip0_17846_17333)">
<path fill-rule="evenodd" clip-rule="evenodd" d="M16.4504 0L22 5.54958L20.8108 6.73882L18.6306 4.55865L14.9145 8.27479L18.1847 11.545L16.9955 12.7343L15.9054 11.6442L9.41445 18.1351C9.25675 18.2928 9.04286 18.3814 8.81983 18.3814H4.80782L1.18924 22L0 20.8108L3.61857 17.1922V13.1802C3.61857 12.9571 3.70717 12.7432 3.86487 12.5855L10.3558 6.09462L9.26571 5.00454L10.455 3.81529L13.7252 7.08555L17.4413 3.36941L15.2612 1.18924L16.4504 0ZM11.545 7.28387L10.5541 8.27479L12.1892 9.90992L11 11.0992L9.36487 9.46403L7.28387 11.545L8.91899 13.1802L7.72975 14.3694L6.09462 12.7343L5.30042 13.5285V16.6996H8.47151L14.7161 10.455L11.545 7.28387Z" fill="#006FFF"/>
</g>
<defs>
<clipPath id="clip0_17846_17333">
<rect width="22" height="22" fill="white"/>
</clipPath>
</defs>
</svg>
