<svg width="13" height="31" viewBox="0 0 13 31" fill="none" xmlns="http://www.w3.org/2000/svg">
<path d="M1.51 3.02C1.51 1.3439 2.8539 0 4.53 0C6.2061 0 7.55 1.3439 7.55 3.02C7.55 4.6961 6.2061 6.04 4.53 6.04C2.8539 6.04 1.51 4.6961 1.51 3.02ZM12.08 16.61C12.0731 15.6427 11.7836 14.6985 11.247 13.8936C10.7105 13.0888 9.95026 12.4584 9.06 12.08C9.06 9.4979 6.9158 7.4292 4.2884 7.55C1.8422 7.6859 0 9.8754 0 12.3216V21.14C0 21.9705 0.6795 22.65 1.51 22.65H3.02V27.935C3.02 29.1883 4.0317 30.2 5.285 30.2C6.5383 30.2 7.55 29.1883 7.55 27.935V22.65H10.57C11.4005 22.65 12.08 21.9705 12.08 21.14V16.61Z" fill="#006FFF"/>
</svg>
